<svg width="29" height="29" viewBox="0 0 29 29" fill="none" xmlns="http://www.w3.org/2000/svg">
<g clip-path="url(#clip0_265_349)">
<mask id="mask0_265_349" style="mask-type:alpha" maskUnits="userSpaceOnUse" x="0" y="0" width="29" height="29">
<path d="M28.5 0.5H0.5V28.5H28.5V0.5Z" fill="#C4C4C4"/>
</mask>
<g mask="url(#mask0_265_349)">
<path d="M23.3083 26.3417C23.1252 26.3417 22.9443 26.2834 22.7927 26.1737L14.0917 19.841L5.39067 26.176C5.12467 26.3674 4.77232 26.3977 4.47832 26.246C4.18665 26.0979 4 25.7969 4 25.4679V5.45837C4 4.01171 5.17833 2.83337 6.625 2.83337H21.556C23.0027 2.83337 24.181 4.01171 24.181 5.45837V25.4667C24.181 25.7957 23.9967 26.0967 23.7027 26.246C23.579 26.3102 23.4425 26.3417 23.306 26.3417H23.3083ZM14.0917 17.8834C14.2725 17.8834 14.4533 17.9394 14.605 18.0514L22.4333 23.7482V5.45837C22.4333 4.97771 22.0402 4.58337 21.5583 4.58337H6.625C6.14317 4.58337 5.75 4.97771 5.75 5.45837V23.7482L13.5783 18.0514C13.73 17.9394 13.9108 17.8834 14.0917 17.8834Z" fill="black"/>
</g>
</g>
<defs>
<clipPath id="clip0_265_349">
<rect width="28" height="28" fill="white" transform="translate(0.5 0.5)"/>
</clipPath>
</defs>
</svg>
