<svg width="28" height="28" viewBox="0 0 28 28" fill="none" xmlns="http://www.w3.org/2000/svg">
<mask id="mask0_207_92" style="mask-type:alpha" maskUnits="userSpaceOnUse" x="0" y="0" width="28" height="28">
<rect width="28" height="28" fill="#C4C4C4"/>
</mask>
<g mask="url(#mask0_207_92)">
<path d="M22.8083 25.8417C22.6252 25.8417 22.4443 25.7834 22.2927 25.6737L13.5917 19.341L4.89067 25.676C4.62467 25.8674 4.27232 25.8977 3.97832 25.746C3.68665 25.5979 3.5 25.2969 3.5 24.9679V4.95837C3.5 3.51171 4.67833 2.33337 6.125 2.33337H21.056C22.5027 2.33337 23.681 3.51171 23.681 4.95837V24.9667C23.681 25.2957 23.4967 25.5967 23.2027 25.746C23.079 25.8102 22.9425 25.8417 22.806 25.8417H22.8083ZM13.5917 17.3834C13.7725 17.3834 13.9533 17.4394 14.105 17.5514L21.9333 23.2482V4.95837C21.9333 4.47771 21.5402 4.08337 21.0583 4.08337H6.125C5.64317 4.08337 5.25 4.47771 5.25 4.95837V23.2482L13.0783 17.5514C13.23 17.4394 13.4108 17.3834 13.5917 17.3834Z" fill="black"/>
</g>
</svg>
