<svg width="29" height="29" viewBox="0 0 29 29" fill="none" xmlns="http://www.w3.org/2000/svg">
<g clip-path="url(#clip0_265_355)">
<mask id="mask0_265_355" style="mask-type:alpha" maskUnits="userSpaceOnUse" x="0" y="0" width="29" height="29">
<path d="M28.5 0.5H0.5V28.5H28.5V0.5Z" fill="#C4C4C4"/>
</mask>
<g mask="url(#mask0_265_355)">
<path d="M24.7085 9.93374H20.1235L20.5575 4.94974C20.5995 4.46907 20.2425 4.04558 19.7618 4.00241C19.2753 3.96741 18.8565 4.31741 18.8145 4.79924L18.3677 9.93257H10.9943L11.426 4.9509C11.4692 4.46906 11.111 4.04558 10.6327 4.00241C10.1427 3.96741 9.72617 4.31741 9.68417 4.79924L9.2385 9.93257H4.62083C4.13783 9.93257 3.74583 10.3257 3.74583 10.8076C3.74583 11.2894 4.13783 11.6826 4.62083 11.6826H9.08684L8.44517 19.0641H3.7085C3.2255 19.0641 2.8335 19.4561 2.8335 19.9391C2.8335 20.4221 3.2255 20.8141 3.7085 20.8141H8.2935L7.8595 25.7981C7.8175 26.2787 8.1745 26.7022 8.65517 26.7454L8.73217 26.7489C9.18134 26.7489 9.56284 26.4047 9.6025 25.9486L10.0493 20.8152H17.4227L16.991 25.7969C16.949 26.2787 17.306 26.7022 17.7867 26.7454L17.8637 26.7489C18.3128 26.7489 18.6943 26.4047 18.734 25.9486L19.1797 20.8152H23.7962C24.278 20.8152 24.6712 20.4221 24.6712 19.9402C24.6712 19.4584 24.278 19.0652 23.7962 19.0652H19.3302L19.9718 11.6837H24.7085C25.1915 11.6837 25.5835 11.2917 25.5835 10.8087C25.5835 10.3257 25.1915 9.93374 24.7085 9.93374ZM17.5743 19.0641H10.201L10.8427 11.6837H18.216L17.5743 19.0641Z" fill="black"/>
</g>
</g>
<defs>
<clipPath id="clip0_265_355">
<rect width="28" height="28" fill="white" transform="translate(0.5 0.5)"/>
</clipPath>
</defs>
</svg>
