<svg width="28" height="28" viewBox="0 0 28 28" fill="none" xmlns="http://www.w3.org/2000/svg">
<mask id="mask0_152_234" style="mask-type:alpha" maskUnits="userSpaceOnUse" x="0" y="0" width="28" height="28">
<rect width="28" height="28" fill="#C4C4C4"/>
</mask>
<g mask="url(#mask0_152_234)">
<path d="M26.0287 8.80254L14.2419 2.43837C13.9817 2.29837 13.6702 2.29837 13.4101 2.43837L1.62558 8.80254C1.20091 9.03238 1.04225 9.56321 1.27208 9.98904C1.42958 10.2807 1.73175 10.4475 2.04208 10.4475C2.18208 10.4475 2.32558 10.4125 2.45741 10.3425L3.40824 9.8292L5.30874 23.261C5.55841 24.6785 6.83475 25.6667 8.40975 25.6667H19.2387C20.8161 25.6667 22.0912 24.6774 22.3456 23.2319L24.2426 9.82687L25.1969 10.3425C25.6216 10.5677 26.1536 10.4125 26.3834 9.98787C26.6121 9.56437 26.4534 9.03354 26.0287 8.80254ZM20.6177 22.9577C20.4929 23.6647 19.7976 23.9167 19.2411 23.9167H8.41208C7.85208 23.9167 7.15791 23.6647 7.03774 22.9857L5.05208 8.94254L13.8254 4.20354L22.6011 8.94021L20.6177 22.9577Z" fill="black"/>
<path d="M9.41538 14.1855C9.41538 16.6168 11.3929 18.5955 13.8254 18.5955C16.2579 18.5955 18.2354 16.6168 18.2354 14.1855C18.2354 11.7542 16.2579 9.7755 13.8254 9.7755C11.3929 9.7755 9.41538 11.7542 9.41538 14.1855ZM16.4854 14.1855C16.4854 15.6532 15.293 16.8455 13.8254 16.8455C12.3577 16.8455 11.1654 15.6532 11.1654 14.1855C11.1654 12.7178 12.3577 11.5255 13.8254 11.5255C15.293 11.5255 16.4854 12.7178 16.4854 14.1855Z" fill="black"/>
</g>
</svg>
