<svg width="29" height="29" viewBox="0 0 29 29" fill="none" xmlns="http://www.w3.org/2000/svg">
<g clip-path="url(#clip0_265_365)">
<mask id="mask0_265_365" style="mask-type:alpha" maskUnits="userSpaceOnUse" x="0" y="0" width="29" height="29">
<path d="M28.5 0.5H0.5V28.5H28.5V0.5Z" fill="#C4C4C4"/>
</mask>
<g mask="url(#mask0_265_365)">
<path d="M26.5285 9.30254L14.7417 2.93837C14.4815 2.79837 14.17 2.79837 13.9099 2.93837L2.12539 9.30254C1.70072 9.53238 1.54206 10.0632 1.77189 10.489C1.92939 10.7807 2.23156 10.9475 2.54189 10.9475C2.68189 10.9475 2.82539 10.9125 2.95722 10.8425L3.90805 10.3292L5.80855 23.761C6.05822 25.1785 7.33456 26.1667 8.90956 26.1667H19.7385C21.3159 26.1667 22.591 25.1774 22.8454 23.7319L24.7424 10.3269L25.6967 10.8425C26.1214 11.0677 26.6534 10.9125 26.8832 10.4879C27.1119 10.0644 26.9532 9.53354 26.5285 9.30254ZM21.1175 23.4577C20.9927 24.1647 20.2974 24.4167 19.7409 24.4167H8.91189C8.35189 24.4167 7.65772 24.1647 7.53755 23.4857L5.55189 9.44254L14.3252 4.70354L23.1009 9.44021L21.1175 23.4577Z" fill="black"/>
<path d="M9.91504 14.6855C9.91504 17.1168 11.8926 19.0955 14.3251 19.0955C16.7576 19.0955 18.7351 17.1168 18.7351 14.6855C18.7351 12.2542 16.7576 10.2755 14.3251 10.2755C11.8926 10.2755 9.91504 12.2542 9.91504 14.6855ZM16.9851 14.6855C16.9851 16.1532 15.7927 17.3455 14.3251 17.3455C12.8574 17.3455 11.6651 16.1532 11.6651 14.6855C11.6651 13.2178 12.8574 12.0255 14.3251 12.0255C15.7927 12.0255 16.9851 13.2178 16.9851 14.6855Z" fill="black"/>
</g>
</g>
<defs>
<clipPath id="clip0_265_365">
<rect width="28" height="28" fill="white" transform="translate(0.5 0.5)"/>
</clipPath>
</defs>
</svg>
