<svg width="28" height="28" viewBox="0 0 28 28" fill="none" xmlns="http://www.w3.org/2000/svg">
<mask id="mask0_207_171" style="mask-type:alpha" maskUnits="userSpaceOnUse" x="0" y="0" width="28" height="28">
<rect width="28" height="28" fill="#C4C4C4"/>
</mask>
<g mask="url(#mask0_207_171)">
<path d="M23.0416 25.6667H4.95831C3.51165 25.6667 2.33331 24.4884 2.33331 23.0417V4.95837C2.33331 3.51171 3.51165 2.33337 4.95831 2.33337H23.0416C24.4883 2.33337 25.6666 3.51171 25.6666 4.95837V23.0417C25.6666 24.4884 24.4883 25.6667 23.0416 25.6667ZM4.95831 4.08337C4.47531 4.08337 4.08331 4.47654 4.08331 4.95837V23.0417C4.08331 23.5235 4.47531 23.9167 4.95831 23.9167H23.0416C23.5246 23.9167 23.9166 23.5235 23.9166 23.0417V4.95837C23.9166 4.47654 23.5246 4.08337 23.0416 4.08337H4.95831Z" fill="black"/>
<path d="M19.5417 9.91663H7.875C7.392 9.91663 7 9.52346 7 9.04163C7 8.55979 7.392 8.16663 7.875 8.16663H19.5417C20.0247 8.16663 20.4167 8.55746 20.4167 9.04163C20.4167 9.52579 20.0247 9.91663 19.5417 9.91663ZM19.5417 14.7116H7.875C7.392 14.7116 7 14.3196 7 13.8366C7 13.3536 7.392 12.9616 7.875 12.9616H19.5417C20.0247 12.9616 20.4167 13.3536 20.4167 13.8366C20.4167 14.3196 20.0247 14.7116 19.5417 14.7116ZM13.7083 19.5066H7.875C7.392 19.5066 7 19.1158 7 18.6316C7 18.1475 7.392 17.7566 7.875 17.7566H13.7083C14.1913 17.7566 14.5833 18.1498 14.5833 18.6316C14.5833 19.1135 14.1913 19.5066 13.7083 19.5066Z" fill="black"/>
</g>
</svg>
