<svg width="29" height="29" viewBox="0 0 29 29" fill="none" xmlns="http://www.w3.org/2000/svg">
<g clip-path="url(#clip0_265_327)">
<mask id="mask0_265_327" style="mask-type:alpha" maskUnits="userSpaceOnUse" x="0" y="0" width="29" height="29">
<path d="M28.5 0.5H0.5V28.5H28.5V0.5Z" fill="#C4C4C4"/>
</mask>
<g mask="url(#mask0_265_327)">
<path d="M22.9585 4H6.04184C4.272 4 2.8335 5.43967 2.8335 7.21067V21.7882C2.8335 23.5592 4.272 25 6.04184 25H22.9585C24.7283 25 26.1668 23.5592 26.1668 21.7882V7.21067C26.1668 5.43967 24.7283 4 22.9585 4ZM6.04184 5.75H22.9585C23.7635 5.75 24.4168 6.40333 24.4168 7.20833V8.04132L15.0252 14.3028C14.7067 14.5128 14.2948 14.5152 13.9752 14.3005L4.5835 8.04132V7.20833C4.5835 6.40333 5.23684 5.75 6.04184 5.75ZM22.9585 23.2477H6.04184C5.23684 23.2477 4.5835 22.5943 4.5835 21.7893V10.0923L13.0302 15.7273C13.477 16.026 13.9892 16.1753 14.5002 16.1753C15.0135 16.1753 15.5233 16.026 15.9702 15.7285L24.4168 10.0935V21.7858C24.4168 22.5908 23.7635 23.2442 22.9585 23.2442V23.2477Z" fill="white"/>
</g>
</g>
<defs>
<clipPath id="clip0_265_327">
<rect width="28" height="28" fill="white" transform="translate(0.5 0.5)"/>
</clipPath>
</defs>
</svg>
