<svg width="29" height="29" viewBox="0 0 29 29" fill="none" xmlns="http://www.w3.org/2000/svg">
<g clip-path="url(#clip0_265_333)">
<mask id="mask0_265_333" style="mask-type:alpha" maskUnits="userSpaceOnUse" x="0" y="0" width="29" height="29">
<path d="M28.5 0.5H0.5V28.5H28.5V0.5Z" fill="#C4C4C4"/>
</mask>
<g mask="url(#mask0_265_333)">
<path d="M25.8142 19.7944C25.7909 19.7757 23.3176 17.8811 23.3607 12.7594C23.3841 9.80539 22.4134 7.18038 20.6226 5.36855C19.0184 3.74338 16.8461 2.84504 14.5069 2.83337H14.4917C12.1537 2.84504 9.98139 3.74339 8.37605 5.36972C6.58639 7.18155 5.61339 9.80539 5.63906 12.7594C5.68223 17.8111 3.28239 19.7209 3.18672 19.7944C2.88339 20.0196 2.75972 20.4127 2.87756 20.772C2.99656 21.1314 3.33254 21.3729 3.70821 21.3729H9.44823C9.56723 24.0679 11.7781 26.2262 14.4999 26.2262C17.2217 26.2262 19.4302 24.0679 19.5481 21.3729H25.2904C25.6661 21.3729 26.0021 21.1326 26.1187 20.7732C26.2389 20.4151 26.1152 20.0207 25.8119 19.7955L25.8142 19.7944ZM14.5011 24.4727C12.7452 24.4727 11.3161 23.0996 11.2017 21.3717H17.8004C17.6837 23.0984 16.2569 24.475 14.5011 24.475V24.4727ZM5.61106 19.6217C6.47439 18.3011 7.41706 16.089 7.38906 12.743C7.36806 10.223 8.14039 8.09738 9.62089 6.59821C10.8961 5.30671 12.6309 4.59154 14.5011 4.58337C16.3712 4.59271 18.1026 5.30672 19.3777 6.59939C20.8594 8.09855 21.6329 10.2231 21.6119 12.7442C21.5839 16.0902 22.5277 18.3034 23.3911 19.6229H5.61106V19.6217Z" fill="black"/>
</g>
</g>
<defs>
<clipPath id="clip0_265_333">
<rect width="28" height="28" fill="white" transform="translate(0.5 0.5)"/>
</clipPath>
</defs>
</svg>
