<svg width="28" height="28" viewBox="0 0 28 28" fill="none" xmlns="http://www.w3.org/2000/svg">
<mask id="mask0_207_51" style="mask-type:alpha" maskUnits="userSpaceOnUse" x="0" y="0" width="28" height="28">
<rect width="28" height="28" fill="#C4C4C4"/>
</mask>
<g mask="url(#mask0_207_51)">
<path d="M25.314 19.2944C25.2907 19.2757 22.8174 17.3811 22.8605 12.2594C22.8839 9.30539 21.9132 6.68038 20.1224 4.86855C18.5182 3.24338 16.3459 2.34504 14.0067 2.33337H13.9915C11.6535 2.34504 9.48121 3.24339 7.87587 4.86972C6.08621 6.68155 5.11321 9.30539 5.13888 12.2594C5.18205 17.3111 2.78221 19.2209 2.68654 19.2944C2.38321 19.5196 2.25954 19.9127 2.37738 20.272C2.49638 20.6314 2.83236 20.8729 3.20803 20.8729H8.94805C9.06705 23.5679 11.2779 25.7262 13.9997 25.7262C16.7215 25.7262 18.93 23.5679 19.0479 20.8729H24.7902C25.1659 20.8729 25.5019 20.6326 25.6185 20.2732C25.7387 19.9151 25.615 19.5207 25.3117 19.2955L25.314 19.2944ZM14.0009 23.9727C12.245 23.9727 10.8159 22.5996 10.7015 20.8717H17.3002C17.1835 22.5984 15.7567 23.975 14.0009 23.975V23.9727ZM5.11088 19.1217C5.97421 17.8011 6.91688 15.589 6.88888 12.243C6.86788 9.72304 7.64021 7.59738 9.12071 6.09821C10.3959 4.80671 12.1307 4.09154 14.0009 4.08337C15.871 4.09271 17.6024 4.80672 18.8775 6.09939C20.3592 7.59855 21.1327 9.72305 21.1117 12.2442C21.0837 15.5902 22.0275 17.8034 22.8909 19.1229H5.11088V19.1217Z" fill="black"/>
</g>
</svg>
