<svg width="19" height="5" viewBox="0 0 19 5" fill="none" xmlns="http://www.w3.org/2000/svg">
<g clip-path="url(#clip0_265_339)">
<path d="M5.17308 2.5C5.17308 3.60457 4.29487 4.5 3.21154 4.5C2.12821 4.5 1.25 3.60457 1.25 2.5C1.25 1.39543 2.12821 0.5 3.21154 0.5C4.29487 0.5 5.17308 1.39543 5.17308 2.5Z" fill="black"/>
<path d="M11.7116 2.5C11.7116 3.60457 10.8334 4.5 9.75011 4.5C8.66678 4.5 7.78857 3.60457 7.78857 2.5C7.78857 1.39543 8.66678 0.5 9.75011 0.5C10.8334 0.5 11.7116 1.39543 11.7116 2.5Z" fill="black"/>
<path d="M18.2498 2.5C18.2498 3.60457 17.3716 4.5 16.2883 4.5C15.2049 4.5 14.3267 3.60457 14.3267 2.5C14.3267 1.39543 15.2049 0.5 16.2883 0.5C17.3716 0.5 18.2498 1.39543 18.2498 2.5Z" fill="black"/>
</g>
<defs>
<clipPath id="clip0_265_339">
<rect width="18" height="4" fill="white" transform="translate(0.5 0.5)"/>
</clipPath>
</defs>
</svg>
